<svg width="15" height="15" viewBox="0 0 15 15" fill="none" xmlns="http://www.w3.org/2000/svg">
<path fill-rule="evenodd" clip-rule="evenodd" d="M13.9169 14.1545C13.2817 14.7867 12.2555 14.7996 11.6052 14.1804L11.5231 14.1006L1.19588 3.78927C0.565017 3.1204 0.552054 2.08043 1.1678 1.39862C1.79866 0.753486 2.83138 0.74054 3.47737 1.37057C3.48385 1.37488 3.48817 1.3792 3.49465 1.38567L7.52398 5.4118L11.1903 1.74815C11.8493 1.12028 12.8885 1.12676 13.541 1.76326C13.6576 1.87977 13.757 2.01138 13.8326 2.1581C14.2064 2.80755 14.0984 3.62313 13.5691 4.15391L9.91781 7.79814L13.8888 11.766C14.5586 12.3982 14.5845 13.4533 13.9493 14.12C13.9444 14.1274 13.9381 14.1333 13.9315 14.1395C13.9266 14.1442 13.9215 14.1489 13.9169 14.1545ZM0.927981 12.0531L2.40576 10.5772C3.07335 9.95368 4.11903 9.99252 4.74342 10.6571C5.36564 11.3259 5.32891 12.3702 4.66132 12.9916L3.19002 14.461C2.53971 15.0694 1.52428 15.0522 0.893413 14.4221L0.845882 14.3876C0.2323 13.7166 0.269029 12.6788 0.927981 12.0531Z" fill="#FF5252"/>
</svg>
